<svg xmlns="http://www.w3.org/2000/svg" viewBox="0 0 200 200" fill="none" stroke="#fff" stroke-width="0.85" stroke-linecap="round" stroke-linejoin="round">
  <!-- Isometric base platform -->
  <path d="M40 130 L100 165 L160 130 L100 95 Z" opacity="0.5"/>
  <path d="M40 130 L100 165 L160 130 L100 95 Z"/>

  <!-- Hex tower faces -->
  <path d="M78 130 L88 95 L112 95 L122 130 Z"/>
  <path d="M88 95 L94 68 L118 68 L112 95 Z"/>
  <path d="M94 68 L100 44 L124 44 L118 68 Z"/>
  <path d="M100 44 L106 24 L130 24 L124 44 Z"/>
  <line x1="78" y1="130" x2="88" y2="95"/>
  <line x1="122" y1="130" x2="112" y2="95"/>
  <line x1="88" y1="95" x2="94" y2="68"/>
  <line x1="112" y1="95" x2="118" y2="68"/>
  <line x1="94" y1="68" x2="100" y2="44"/>
  <line x1="118" y1="68" x2="124" y2="44"/>
  <line x1="100" y1="44" x2="106" y2="24"/>
  <line x1="124" y1="44" x2="130" y2="24"/>

  <!-- Nacelle -->
  <path d="M96 24 L134 38 L134 48 L96 34 Z"/>
  <ellipse cx="115" cy="31" rx="18" ry="5" transform="rotate(15 115 31)"/>
  <line x1="134" y1="43" x2="148" y2="46"/>

  <!-- Hub + blades -->
  <circle cx="92" cy="28" r="2.5" fill="rgba(255,255,255,0.2)" stroke="#fff"/>
  <line x1="92" y1="28" x2="92" y2="4" stroke-width="1.1"/>
  <line x1="92" y1="28" x2="118" y2="38" stroke-width="1.1"/>
  <line x1="92" y1="28" x2="66" y2="38" stroke-width="1.1"/>
  <path d="M90 6 L92 4 L94 6" stroke-width="0.7"/>
  <path d="M116 36 L118 38 L116 40" stroke-width="0.7"/>
  <path d="M68 36 L66 38 L68 40" stroke-width="0.7"/>

  <!-- Cross-hatch shading on tower -->
  <line x1="82" y1="118" x2="90" y2="110" opacity="0.25"/>
  <line x1="86" y1="122" x2="94" y2="114" opacity="0.25"/>
  <line x1="90" y1="126" x2="98" y2="118" opacity="0.25"/>
</svg>
